<?xml version="1.0" encoding="UTF-8" standalone="no"?>
<!-- Created with Inkscape (http://www.inkscape.org/) -->

<svg
   width="210mm"
   height="297mm"
   viewBox="0 0 210 297"
   version="1.1"
   id="svg5"
   xml:space="preserve"
   inkscape:version="1.2.2 (b0a8486541, 2022-12-01)"
   sodipodi:docname="khalerdaemono.svg"
   xmlns:inkscape="http://www.inkscape.org/namespaces/inkscape"
   xmlns:sodipodi="http://sodipodi.sourceforge.net/DTD/sodipodi-0.dtd"
   xmlns="http://www.w3.org/2000/svg"
   xmlns:svg="http://www.w3.org/2000/svg"><sodipodi:namedview
     id="namedview7"
     pagecolor="#505050"
     bordercolor="#eeeeee"
     borderopacity="1"
     inkscape:showpageshadow="0"
     inkscape:pageopacity="0"
     inkscape:pagecheckerboard="0"
     inkscape:deskcolor="#505050"
     inkscape:document-units="mm"
     showgrid="false"
     inkscape:zoom="0.52724989"
     inkscape:cx="460.88203"
     inkscape:cy="599.33631"
     inkscape:window-width="1920"
     inkscape:window-height="1017"
     inkscape:window-x="-8"
     inkscape:window-y="-8"
     inkscape:window-maximized="1"
     inkscape:current-layer="layer1" /><defs
     id="defs2" /><g
     inkscape:label="Layer 1"
     inkscape:groupmode="layer"
     id="layer1"><path
       style="fill:#000000;stroke-width:0.0661712"
       d="m 122.91294,228.96541 c -0.0895,-0.11828 -0.40769,-0.64682 -0.70702,-1.17454 -0.29934,-0.52771 -1.22477,-2.09924 -2.05653,-3.49227 -0.83176,-1.39303 -1.55853,-2.62221 -1.61506,-2.73152 -0.0565,-0.10931 -0.30933,-0.94973 -0.56181,-1.8676 -0.72329,-2.62957 -1.16575,-4.10918 -1.23578,-4.13252 -0.14983,-0.0499 -4.58344,1.89485 -8.27202,3.62852 -1.4632,0.68771 -2.71763,1.25038 -2.78763,1.25038 -0.07,0 -0.15746,-0.0372 -0.19435,-0.0827 -0.0369,-0.0455 -0.35652,-0.7527 -0.7103,-1.57157 -1.28506,-2.97443 -1.92001,-4.33277 -3.65682,-7.82296 -0.97296,-1.9552 -1.783915,-3.55447 -1.802115,-3.55394 -0.0182,6.7e-4 -0.22664,0.27301 -0.4632,0.6055 -2.48886,3.49813 -2.74655,3.87727 -7.03679,10.35366 l -1.36707,2.06369 -0.24808,-0.0375 c -0.55102,-0.0834 -3.01694,-1.05855 -4.80751,-1.90121 -0.43321,-0.20386 -0.79306,-0.36283 -0.79967,-0.35325 -0.007,0.01 -0.29404,0.35986 -0.63874,0.7784 -0.83861,1.01822 -2.49664,3.09484 -3.83038,4.79741 -1.52631,1.94839 -1.48681,1.90798 -1.81479,1.85633 -0.40095,-0.0631 -4.92072,-1.5863 -6.88495,-2.32023 -0.94625,-0.35356 -1.73009,-0.65161 -1.74187,-0.66232 -0.0267,-0.0243 0.18886,-0.44991 0.25073,-0.49498 0.025,-0.0182 0.46909,-0.64351 0.98691,-1.38959 0.51782,-0.74608 1.08998,-1.56856 1.27147,-1.82774 l 0.32998,-0.47124 -0.20755,-0.52133 c -0.11416,-0.28673 -0.27754,-0.70672 -0.36307,-0.9333 l -0.15551,-0.41196 0.92282,-0.57021 c 0.50756,-0.31361 0.92283,-0.59126 0.92283,-0.617 0,-0.0257 -0.0273,-0.0751 -0.0607,-0.10966 -0.0334,-0.0346 -0.46589,-0.72891 -0.9611,-1.54298 -0.76402,-1.25595 -0.88793,-1.49649 -0.81814,-1.58811 0.0452,-0.0594 0.29439,-0.33132 0.55367,-0.60427 0.5326,-0.56068 2.03702,-2.17153 2.65662,-2.84458 l 0.41086,-0.4463 0.13317,-1.21647 c 0.35659,-3.2574 0.4678,-4.28372 0.4678,-4.31739 0,-0.0202 -0.29033,-0.0228 -0.64517,-0.006 -0.35485,0.017 -1.37471,0.0612 -2.26637,0.0981 -1.80221,0.0747 -4.41238,0.24764 -4.56581,0.30247 -0.0546,0.0195 -1.60879,-0.34579 -3.45377,-0.81178 -2.92255,-0.73815 -3.35913,-0.86443 -3.39037,-0.9807 -0.0197,-0.0734 -0.0363,-1.17971 -0.0368,-2.45847 l -9e-4,-2.325 -0.25853,-1.08281 c -0.14219,-0.59554 -0.33921,-1.43234 -0.43781,-1.85956 l -0.17929,-0.77675 0.98648,-1.50616 c 0.7661,-1.16969 1.04323,-1.65397 1.24055,-2.16786 0.35521,-0.92511 1.88896,-5.5253 1.84219,-5.5253 -0.0211,0 -0.55897,0.1662 -1.1952,0.36934 -0.78238,0.24981 -1.1713,0.34584 -1.20166,0.2967 -0.04,-0.0647 0.0739,-1.4141 0.15774,-1.86808 0.0316,-0.17107 -0.0358,-0.2128 -2.23104,-1.3827 -2.01817,-1.07552 -4.48898,-2.41604 -6.3488,-3.4445 -0.35436,-0.19595 -0.63724,-0.3917 -0.62863,-0.43498 0.0247,-0.12401 2.31866,-2.97777 3.42075,-4.25552 0.73814,-0.85579 1.13982,-1.39113 1.53915,-2.05131 2.14782,-3.55076 4.97823,-7.82042 7.91778,-11.94391 1.3375,-1.87619 4.48536,-6.08715 4.68276,-6.26422 0.13926,-0.12492 1.70449,-0.58553 3.98542,-1.17282 0.85057,-0.219 1.55649,-0.40819 1.56872,-0.42041 0.0189,-0.0189 -1.28329,-1.897 -1.95781,-2.82365 -0.46081,-0.63307 -2.24921,-3.30486 -2.24921,-3.36023 0,-0.07 0.34683,-0.18654 1.72712,-0.58035 1.32908,-0.3792 5.22974,-1.66589 5.37474,-1.77294 0.12496,-0.0923 0.0955,-0.21404 -1.04417,-4.31697 -0.31338,-1.12822 -0.80521,-2.99067 -1.09294,-4.13877 l -0.52316,-2.08746 -0.10152,-1.6843 c -0.16872,-2.79868 -0.23253,-4.4473 -0.18411,-4.75578 l 0.0459,-0.29253 0.15711,0.39179 c 0.0864,0.21548 0.22563,0.49945 0.30937,0.63104 0.0837,0.13159 0.18438,0.35856 0.22364,0.50437 0.11943,0.44353 1.37372,3.1742 3.60972,7.85864 0.60802,1.2738 1.19948,2.53932 1.31436,2.81228 l 0.20887,0.49628 0.0529,-0.59554 c 0.16712,-1.88117 0.30344,-3.15761 0.34126,-3.19542 0.0237,-0.0237 0.0708,6.6e-4 0.1047,0.0542 0.0422,0.0667 0.0619,-0.0225 0.0626,-0.28314 5.2e-4,-0.20927 0.0273,-0.38049 0.0595,-0.38049 0.0322,0 0.401,0.49877 0.81964,1.10837 l 0.76118,1.10837 0.50377,0.20733 c 0.27708,0.11402 0.50378,0.1924 0.50378,0.17415 0,-0.0182 -0.25213,-0.81129 -0.56029,-1.76234 -0.30816,-0.95105 -0.77335,-2.42895 -1.03375,-3.28421 -0.46841,-1.53839 -0.47335,-1.56252 -0.46259,-2.25537 0.0191,-1.23006 0.0594,-1.2065 0.49277,0.288 0.72852,2.51253 1.30672,4.38137 2.09296,6.76478 0.4322,1.31019 0.86547,2.66505 0.96282,3.01079 0.11711,0.41596 0.23608,0.69193 0.35165,0.81574 0.36003,0.38571 1.85788,1.56933 2.13571,1.68767 0.96544,0.41123 5.31021,1.83634 9.09082,2.98185 l 2.379965,0.72112 0.26515,-0.13509 c 0.9111,-0.46421 8.42596,-4.87794 11.00123,-6.46139 l 1.14126,-0.70172 1.59606,-2.05131 c 0.87784,-1.12822 1.93821,-2.49118 2.35637,-3.0288 0.41817,-0.53763 0.81451,-1.00651 0.88076,-1.04196 0.25173,-0.13473 0.47253,0.12924 0.33033,0.39493 -0.0394,0.0737 -0.44609,0.61378 -0.90364,1.20016 -0.53951,0.69141 -0.80927,1.08878 -0.76749,1.13055 0.0354,0.0354 0.16309,0.0548 0.28371,0.0431 0.20199,-0.0197 0.27646,-0.10484 0.94444,-1.0801 0.39883,-0.58231 1.30196,-1.8838 2.00695,-2.89221 l 1.2818,-1.83347 0.14017,-1.11893 0.14016,-1.11892 -0.75334,-1.00018 c -0.41434,-0.5501 -0.78579,-1.0007 -0.82544,-1.00134 -0.0397,-6.6e-4 -0.11029,-0.20353 -0.15696,-0.45087 -0.0675,-0.35796 -0.0714,-1.09333 -0.0187,-3.60405 0.0384,-1.83191 0.0418,-3.28454 0.008,-3.46494 -0.065,-0.34792 -0.90479,-2.31099 -1.5613,-3.64964 -0.34353,-0.70047 -0.49988,-0.9431 -0.77075,-1.19608 -0.18689,-0.17455 -0.60826,-0.56822 -0.93637,-0.87482 -0.63955,-0.59761 -2.83514,-2.56053 -3.19352,-2.85511 -0.36585,-0.30071 -0.59655,-0.0657 -0.30752,0.3132 0.0935,0.12253 0.48789,0.49966 0.87652,0.83806 1.28114,1.11559 2.95104,2.64038 3.27249,2.98811 0.35185,0.38064 0.60737,0.8787 1.55026,3.02187 l 0.62592,1.42268 -0.007,0.79405 c -0.0261,2.90162 -0.14776,8.42637 -0.19524,8.86695 -0.0555,0.51539 -0.0772,0.56432 -0.81847,1.85279 -1.44206,2.50646 -2.0996,3.53888 -2.10017,3.29754 -6.6e-4,-0.14675 -0.47725,-4.85652 -0.56506,-5.58044 -0.0872,-0.71847 -0.18338,-1.07928 -0.73232,-2.74611 -0.51389,-1.56037 -0.70718,-2.05498 -1.03438,-2.64685 -0.53829,-0.9737 -1.62547,-2.78434 -2.51923,-4.19565 -0.69798,-1.10215 -0.74415,-1.19785 -1.07162,-2.22122 -0.40658,-1.27061 -0.53346,-1.47659 -1.69586,-2.75303 -0.45002,-0.49417 -0.94113,-1.03807 -1.09135,-1.20866 -0.18473,-0.20977 -0.30706,-0.29714 -0.37797,-0.26993 -0.14121,0.0542 -0.19862,0.25921 -0.11587,0.41382 0.0371,0.0694 0.58898,0.70123 1.22635,1.40413 l 1.15886,1.27799 0.29571,0.89783 c 0.61362,1.86301 0.88492,2.87126 0.92711,3.44542 0.0227,0.30935 -0.003,1.43451 -0.0564,2.50035 l -0.0977,1.9379 -0.38401,0.72544 c -0.21121,0.39899 -0.41378,0.72424 -0.45018,0.72278 -0.0364,-0.001 -0.34693,-0.47042 -0.69007,-1.04214 -0.34315,-0.57172 -1.18827,-1.92845 -1.87805,-3.01497 l -1.25414,-1.97547 -0.57029,-0.4212 c -0.31366,-0.23166 -0.99187,-0.69755 -1.50714,-1.03532 l -0.93685,-0.61411 -0.38258,-0.62863 c -2.35316,-3.86647 -2.22257,-3.67291 -2.41014,-3.57252 -0.0635,0.034 -0.13185,0.10456 -0.15192,0.15686 -0.0202,0.0527 0.23092,0.533 0.56319,1.07712 0.32983,0.54012 0.85442,1.39891 1.16578,1.90843 0.31135,0.50952 0.848,1.41772 1.19257,2.01822 l 0.62647,1.09183 0.18155,1.25725 c 0.0999,0.69149 0.2597,2.03146 0.35522,2.97771 0.0955,0.94625 0.20003,1.86924 0.23226,2.05109 0.0548,0.30911 0.0346,0.39417 -0.30976,1.30688 -0.20261,0.53693 -0.40474,0.97624 -0.44919,0.97624 -0.12448,0 -0.16174,-0.25026 -0.092,-0.61794 0.0699,-0.36863 0.0665,-0.39336 -0.34393,-2.49211 -0.62097,-3.17532 -0.73879,-3.61501 -1.42748,-5.32678 -0.35141,-0.87346 -0.98691,-2.33254 -1.41222,-3.24239 -0.425305,-0.90985 -0.839555,-1.80848 -0.920545,-1.99695 -0.16314,-0.37961 -0.27902,-0.46338 -0.4309,-0.3115 -0.1873,0.1873 -0.32151,-0.14797 1.586285,3.96273 0.60806,1.31019 1.13308,2.4715 1.16671,2.58068 0.0962,0.31219 0.55289,2.38264 0.88231,3.99974 0.41397,2.03218 0.45176,2.43469 0.36687,3.90772 -0.209,3.62634 -0.41528,6.39203 -0.48173,6.45848 -0.0165,0.0165 -0.45674,-0.6334 -0.97834,-1.44418 -1.46494,-2.27707 -4.052495,-6.13862 -4.421355,-6.59822 -0.53306,-0.66422 -2.86632,-3.18269 -4.76701,-5.14544 l -1.7594,-1.81684 -0.42373,-1.05687 c -0.28523,-0.71142 -0.45118,-1.04633 -0.5077,-1.02464 -0.0859,0.0329 -0.20486,-0.42975 -0.13824,-0.53754 0.0181,-0.0293 0.0806,-0.94607 0.13877,-2.03719 0.0582,-1.09112 0.12185,-2.08204 0.14146,-2.20204 0.0501,-0.30644 -0.0336,-0.79174 -0.1438,-0.83403 -0.20007,-0.0768 -0.28144,0.0362 -0.3209,0.4454 -0.0402,0.41639 -0.2422,4.19966 -0.36459,6.82691 -0.0635,1.36213 -0.18944,5.43565 -0.20823,6.73292 -0.006,0.39804 -0.0329,0.579 -0.0869,0.579 -0.0876,0 -1.82309,-3.37915 -2.34644,-4.56882 l -0.33608,-0.76398 -0.0725,-1.71744 c -0.0405,-0.95986 -0.0523,-2.31173 -0.0268,-3.06467 l 0.0457,-1.34722 0.56231,-0.96877 c 0.52216,-0.8996 0.94455,-1.68496 0.94455,-1.75621 0,-0.0166 -0.0467,-0.077 -0.10385,-0.1341 -0.0754,-0.0754 -0.13676,-0.0862 -0.22385,-0.0396 -0.10793,0.0578 -0.55753,0.80613 -1.36304,2.2688 l -0.28284,0.51358 -0.064,1.00836 c -0.061,0.96199 0.049,5.03035 0.13842,5.1198 0.0189,0.0189 -0.45404,1.2442 -1.05102,2.72286 -0.59698,1.47866 -1.1147,2.85357 -1.15049,3.05535 -0.14234,0.80246 -0.80847,6.25784 -1.03027,8.4375 -0.12949,1.27254 -0.24887,2.32714 -0.26529,2.34356 -0.0494,0.0494 -0.0569,0.0351 -0.92638,-1.77959 -1.7276,-3.60545 -3.77655,-8.07985 -4.04492,-8.8331 -0.1344,-0.37724 -1.43393,-6.52271 -1.42725,-6.74946 0.001,-0.0364 0.26177,-0.75104 0.57931,-1.58811 0.41759,-1.10077 0.64327,-1.60434 0.81553,-1.81971 0.39565,-0.49467 2.30145,-2.68185 3.25316,-3.73347 0.49145,-0.54306 1.04484,-1.16033 1.22973,-1.37171 0.34613,-0.39571 0.81744,-0.73199 3.83261,-2.73449 l 1.52194,-1.01079 1.95205,-0.17682 c 3.38881,-0.30695 5.18367,-0.50368 5.2732,-0.57799 0.11067,-0.0919 0.10937,-0.15592 -0.006,-0.27078 -0.0938,-0.0938 -0.32248,-0.0818 -1.46286,0.0769 -0.22131,0.0308 -0.46483,0.0297 -0.55022,-0.003 -0.0842,-0.0318 -0.26397,-0.0578 -0.39937,-0.0578 -0.23828,0 -0.25315,-0.0143 -0.46406,-0.44665 -0.36446,-0.74711 -1.71562,-3.29396 -2.34328,-4.41693 -1.23699,-2.213155 -2.2867,-3.934255 -4.4628,-7.317233 -0.68874,-1.07071 -1.30967,-2.04552 -1.37984,-2.16625 -0.23988,-0.41266 -3.38508,-2.31871 -8.92837,-5.41076 l -0.26469,-0.14764 -0.52937,0.12963 c -3.20039,0.78375 -6.61909,1.78625 -7.08807,2.07851 -0.19878,0.12388 -2.81721,3.51038 -4.37177,5.65416 l -0.5998,0.82714 -0.10628,0.893308 c -0.22756,1.91253 -0.46955,4.77754 -0.54215,6.418615 -0.0375,0.84787 -0.0752,1.0788 -0.32392,1.98514 -0.42375,1.5441 -0.52859,1.97863 -0.48735,2.01987 0.047,0.047 2.29296,0.15869 3.24889,0.1616 0.5878,0.002 0.76012,-0.0214 0.97504,-0.13101 0.32515,-0.16587 0.79191,-0.46773 3.94558,-2.55165 l 2.52454,-1.66819 0.41547,-0.61922 c 0.4818,-0.718105 1.43696,-2.054535 1.97959,-2.769795 0.66487,-0.87638 0.6983,-0.95108 1.12528,-2.5145 0.22363,-0.818868 0.53492,-1.950398 0.69176,-2.514508 0.15683,-0.56411 0.37987,-1.38298 0.49565,-1.81971 0.28568,-1.07765 0.32035,-1.158 0.49963,-1.158 0.29271,0 0.3271,0.14667 0.17581,0.74989 -0.0761,0.30323 -0.15617,0.59795 -0.17803,0.65492 -0.0312,0.0814 0.11386,0.16352 0.67607,0.38283 0.3937,0.15359 0.82526,0.33476 0.95901,0.40262 0.13375,0.0679 1.42906,1.31172 2.87845,2.764148 2.62364,2.62912 2.63742,2.64437 3.12574,3.45863 0.26977,0.44982 0.77829,1.26451 1.13005,1.81042 1.03642,1.608465 3.3754,5.460775 3.3754,5.559315 0,0.0177 -0.0447,0.0322 -0.0993,0.0322 -0.0657,0 -0.0993,0.0657 -0.0993,0.19405 0,0.23577 -0.18582,0.31787 -0.46122,0.2038 -0.15366,-0.0636 -0.26625,-0.0535 -0.63506,0.0571 -0.47656,0.14297 -1.25769,0.62914 -1.30724,0.81362 -0.0351,0.13048 -0.53332,0.40009 -0.69413,0.37558 -0.0614,-0.009 -0.17563,0.0183 -0.25382,0.0614 -0.13566,0.0749 -0.17643,0.0149 -0.89207,-1.31289 l -0.74992,-1.39135 -0.73005,-0.58357 c -0.40152,-0.32097 -1.32517,-1.02067 -2.05254,-1.5549 -0.72738,-0.53422 -1.41183,-1.0385 -1.52101,-1.12062 -1.36352,-1.02555 -2.01756,-1.425625 -2.91545,-1.783375 -1.1535,-0.45958 -2.42291,-0.91457 -2.48669,-0.89129 -0.0522,0.019 -1.44298,1.915555 -1.44434,1.969535 -8.3e-4,0.0327 0.75331,0.4499 3.76952,2.08511 2.3984,1.30027 3.98817,2.21415 4.15496,2.38849 0.0834,0.0872 0.27292,0.22036 0.42121,0.29601 0.21192,0.10812 1.41049,1.14671 3.08971,2.6773 0.0735,0.067 0.0537,0.10237 -0.11158,0.20002 -0.11048,0.0653 -0.21645,0.18078 -0.23551,0.25672 -0.0195,0.0779 -0.20169,0.23769 -0.41779,0.36658 -0.62091,0.37034 -0.70811,0.44733 -1.48969,1.31529 -1.4498,1.61004 -3.77869,4.28211 -4.05241,4.64956 -0.2078,0.27896 -0.41689,0.74313 -0.83463,1.8528 -0.68546,1.82086 -0.68063,1.70247 -0.17218,4.22669 0.32377,1.60739 0.37164,1.94922 0.41021,2.92975 0.024,0.61052 0.0221,1.63021 -0.004,2.26597 l -0.0479,1.15593 -0.84956,0.77791 c -0.5909,0.54107 -0.94535,0.8145 -1.1642,0.89811 -0.57164,0.21838 -3.60518,1.11402 -3.64348,1.07572 -0.0207,-0.0207 0.1208,-0.46196 0.31435,-0.98068 0.19355,-0.51872 0.70455,-1.925 1.13556,-3.12507 l 0.78365,-2.18193 0.26555,-2.64857 c 0.25282,-2.52172 0.52229,-4.80277 0.66075,-5.59318 0.08,-0.45662 1.25541,-2.75597 2.89218,-5.65764 0.86317,-1.53023 0.86918,-1.53751 2.1704,-2.62849 0.6551,-0.54925 1.23481,-1.03874 1.28824,-1.08776 0.0849,-0.0779 0.0808,-0.105 -0.0331,-0.21534 -0.22112,-0.21428 -3.74447,-2.20673 -6.38342,-3.6098 -0.6005,-0.31928 -1.35318,-0.72997 -1.6726,-0.91265 -0.31943,-0.18269 -0.58912,-0.32055 -0.59932,-0.30636 -0.4203,0.58461 -1.0813,1.05534 -5.47012,3.89555 -1.79094,1.159 -1.53877,1.06 -2.70006,1.06 -0.99167,0 -3.69992,-0.1315 -3.97479,-0.193 -0.0136,-0.003 0.006,-0.043 0.0444,-0.0887 0.038,-0.0458 0.14724,-0.39564 0.24281,-0.77751 0.0956,-0.38187 0.30404,-1.17075 0.46328,-1.75305 0.26582,-0.97202 0.29282,-1.14366 0.32969,-2.09545 0.0585,-1.511075 0.38391,-5.166305 0.62044,-6.970013 0.0572,-0.43589 -0.0631,-0.25726 2.18214,-3.24239 1.15493,-1.53556 2.89211,-3.76181 3.01491,-3.86373 0.0525,-0.0436 0.28436,-0.13424 0.5153,-0.20152 0.23093,-0.0673 0.83676,-0.25684 1.34627,-0.42125 1.57598,-0.50852 5.80186,-1.62959 6.15575,-1.63303 0.0738,-7.3e-4 0.1929,0.0393 0.26468,0.089 0.0718,0.0497 0.99406,0.57468 2.04949,1.16675 2.09991,1.178 4.61173,2.66439 5.95358,3.52308 0.76165,0.48741 0.90391,0.60883 1.26231,1.07737 0.72467,0.94739 3.46229,5.247048 5.09384,8.000288 l 0.13423,0.22651 0.9576,-0.63364 c 0.52668,-0.34849 1.04693,-0.67075 1.15611,-0.71613 0.30577,-0.12707 2.17624,-0.59317 3.57325,-0.89039 1.06578,-0.22676 4.17118,-0.78082 4.55323,-0.81238 0.0879,-0.007 0.10914,-0.0457 0.0799,-0.1444 -0.0219,-0.074 -0.0661,-0.29828 -0.0982,-0.49845 -0.0321,-0.20017 -0.13331,-0.676598 -0.22495,-1.058738 -0.69276,-2.88875 -1.91708,-9.42349 -2.06419,-11.01751 -0.0829,-0.89876 0.35135,-6.22782 0.73498,-9.01865 0.032,-0.23274 0.15925,-0.43472 0.70455,-1.11828 1.42053,-1.78071 2.520365,-2.99806 2.708645,-2.99806 0.20323,0 3.71725,1.98965 5.92215,3.35315 l 1.00076,0.61886 0.87245,1.63687 c 1.15644,2.1697 3.24994,6.36664 4.10073,8.22091 0.75533,1.64622 2.97173,6.79563 3.1437,7.30384 0.12747,0.37669 0.45085,3.1145 0.39362,3.3324 -0.0214,0.0814 -0.0185,0.256968 0.006,0.390038 l 0.0454,0.24195 1.0374,-0.0448 c 0.83769,-0.0362 3.18193,0.002 6.36419,0.10387 0.22137,0.007 1.19045,-0.15021 2.47379,-0.40153 1.16041,-0.227248 2.13384,-0.388898 2.16316,-0.359218 0.0293,0.0297 -0.006,0.262388 -0.0782,0.517148 -0.0723,0.25476 -0.44581,1.69895 -0.82999,3.20931 -0.38418,1.51036 -0.73267,2.810025 -0.77442,2.888145 -0.0418,0.0781 -0.45146,0.55762 -0.91043,1.06555 -0.45898,0.50793 -0.90379,1.01722 -0.98847,1.13176 -0.0847,0.11453 -0.19283,0.20825 -0.24035,0.20825 -0.0475,0 -0.54067,-0.26253 -1.09592,-0.5834 -1.38702,-0.80153 -3.55591,-1.98067 -3.7992,-2.06548 -0.18866,-0.0658 -3.01109,-0.46053 -3.05279,-0.42698 -0.0106,0.009 -0.0358,0.11676 -0.0559,0.24043 -0.0324,0.19978 -0.0192,0.2263 0.11862,0.23785 0.0853,0.007 0.73577,0.0868 1.44546,0.177 1.27772,0.1624 1.29616,0.16705 1.88588,0.47493 0.81195,0.42392 2.64885,1.44937 3.77176,2.10561 0.50952,0.29776 1.00084,0.5777 1.09183,0.62208 0.98677,0.48137 2.87633,2.20334 5.69772,5.19241 1.99203,2.11041 2.27785,2.40576 2.75947,2.85143 0.15257,0.14119 0.27741,0.27915 0.27741,0.30658 0,0.0274 0.5881,0.55587 1.30688,1.17432 0.71879,0.61845 1.79333,1.56735 2.38789,2.10867 0.59455,0.54132 1.26453,1.14519 1.48885,1.34194 0.37838,0.33189 0.50148,0.52702 0.34168,0.54164 -0.0939,0.009 -1.75452,-0.0643 -3.29847,-0.14485 l -1.31332,-0.0685 -2.22684,-0.63062 c -1.22476,-0.34684 -2.61393,-0.73374 -3.08706,-0.85977 -0.47312,-0.12603 -0.95427,-0.28433 -1.06922,-0.35176 -0.4246,-0.24909 -5.0389,-3.54338 -5.62273,-4.01423 -0.33231,-0.26801 -0.63388,-0.48729 -0.67015,-0.48729 -0.0363,0 -0.10301,0.0446 -0.14828,0.0992 -0.2287,0.27556 0.15207,0.58676 4.27025,3.49017 1.37603,0.97013 2.2002,1.50971 2.34908,1.53792 0.12614,0.0239 0.2763,0.0786 0.33369,0.12148 0.0863,0.0645 1.68759,2.46887 2.59062,3.88978 0.35509,0.55873 1.2208,2.88037 2.36922,6.35365 0.60643,1.83408 0.59961,1.78426 0.85923,6.27814 0.0389,0.67329 0.0837,1.26884 0.0995,1.32343 0.0374,0.129 -0.0966,0.33225 -0.14336,0.21756 -0.0374,-0.0915 -2.58795,-4.10656 -2.94417,-4.63456 -0.12894,-0.19111 -0.48639,-0.57821 -0.79434,-0.86023 -0.30795,-0.28202 -1.10921,-1.02975 -1.78057,-1.66162 -0.67138,-0.63188 -1.42305,-1.30186 -1.6704,-1.48886 -0.45272,-0.34226 -2.10796,-2.28219 -4.56579,-5.3511 -0.54593,-0.68165 -1.05105,-1.25792 -1.1225,-1.2806 -0.0778,-0.0247 -0.17176,5.9e-4 -0.2341,0.0629 -0.0948,0.0948 -0.0821,0.13618 0.14044,0.45934 0.28852,0.41893 4.24322,5.26269 4.89955,6.00104 0.0809,0.091 0.3339,0.29777 0.56225,0.45952 0.68347,0.48413 0.71565,0.54682 1.48989,2.90303 0.38647,1.17612 0.70266,2.16768 0.70266,2.20348 0,0.12235 -0.18109,-0.0397 -0.53761,-0.48115 -0.19564,-0.24222 -0.52686,-0.64747 -0.73607,-0.90054 -0.35357,-0.4277 -0.39431,-0.51325 -0.57803,-1.21387 -0.22699,-0.86556 -0.37781,-1.06235 -0.62485,-0.81531 -0.0808,0.0808 -0.0879,0.13373 -0.0317,0.23861 0.0879,0.16427 0.83387,3.50174 1.37466,6.15035 0.62038,3.03841 1.55259,8.04068 1.54797,8.3064 -0.002,0.11857 0.0927,0.17834 0.5691,0.35868 0.31437,0.11902 0.5985,0.23972 0.6314,0.26823 0.0339,0.0294 -0.012,0.14629 -0.10607,0.26995 l -0.16587,0.21811 0.35734,1.19108 c 0.30039,1.00126 1.36771,4.84586 1.4979,5.39561 0.0361,0.15225 0.21303,0.23259 1.87828,0.85265 1.01117,0.37651 1.91849,0.72498 2.01627,0.77439 0.35056,0.17712 2.85916,3.71654 5.12948,7.23725 2.00123,3.10342 3.49963,5.61354 6.73706,11.28591 2.10759,3.69276 2.2246,3.88126 3.01909,4.86359 0.97553,1.20617 2.3727,3.01256 2.3727,3.06764 0,0.0213 -0.0774,0.0387 -0.17205,0.0387 -0.0946,0 -0.41473,0.11447 -0.71134,0.25438 -0.29661,0.13991 -1.32094,0.57574 -2.27629,0.96851 -0.95534,0.39277 -1.73699,0.73815 -1.73699,0.76751 0,0.0294 0.27148,0.64317 0.60329,1.36402 0.3318,0.72086 0.78174,1.74242 0.99985,2.27013 0.21812,0.52772 0.4538,1.09198 0.52375,1.25392 0.22407,0.51877 0.28514,1.75229 0.2868,5.79332 l 0.002,3.77176 -0.29437,0.39703 c -0.24913,0.336 -2.69528,3.39403 -2.85073,3.56381 -0.2113,0.23077 -0.154,-0.72755 0.20776,-3.47512 0.0923,-0.70077 0.0976,-0.64997 -0.44369,-4.19131 -0.40326,-2.63803 -0.60456,-3.56075 -0.93837,-4.30113 -0.71317,-1.5818 -2.26128,-4.66505 -2.34222,-4.66483 -0.0483,0 -0.18205,0.0577 -0.2972,0.12791 -0.18737,0.11425 -0.20639,0.15419 -0.18109,0.38024 0.0683,0.61041 0.49906,5.1604 0.62531,6.60502 0.0773,0.88415 0.1204,1.74943 0.0973,1.95205 -0.15122,1.32624 -0.58621,4.40498 -0.9022,6.38552 -0.14517,0.90986 -0.34868,2.20516 -0.45223,2.87845 -0.10357,0.67329 -0.2477,1.37958 -0.3203,1.56952 -0.24247,0.63436 -1.51478,2.78099 -2.91327,4.91526 -0.59423,0.90685 -0.7322,1.07297 -1.19117,1.43419 -0.2855,0.2247 -0.94304,0.79046 -1.4612,1.25725 -0.99651,0.89774 -1.46935,1.29399 -1.50343,1.25991 -0.0114,-0.0114 0.35722,-1.04654 0.81912,-2.30034 l 0.83983,-2.27964 0.0218,-2.61228 0.0217,-2.61228 -0.3147,-1.40532 c -0.17308,-0.77292 -0.32243,-1.39759 -0.33187,-1.38814 -0.009,0.009 -0.0325,0.55184 -0.0513,1.20532 -0.0691,2.40494 -0.144,2.9905 -0.63908,4.993 -0.24744,1.00084 -0.64711,2.7121 -0.88817,3.8028 -0.50604,2.28973 -0.32837,1.91068 -1.9644,4.19068 l -1.03918,1.44822 1.25854,2.77304 c 1.50621,3.31874 1.48587,3.27055 1.40383,3.32552 -0.0353,0.0237 -0.91073,0.71431 -1.94532,1.53472 -1.0346,0.82042 -2.71454,2.1455 -3.73322,2.94462 -1.01867,0.79913 -2.52241,2.00252 -3.34165,2.6742 -2.33715,1.91622 -2.51268,2.05424 -2.61274,2.05424 -0.0518,0 -0.16745,-0.0968 -0.25697,-0.21506 z m 2.2699,-2.0967 c 1.00283,-0.82166 2.65708,-2.14754 3.67612,-2.94642 3.75475,-2.94356 5.26061,-4.14708 5.26061,-4.20444 0,-0.0761 -2.52602,-5.67096 -4.00328,-8.86681 -0.24393,-0.52772 -0.60296,-1.32218 -0.79783,-1.76547 l -0.35432,-0.80598 0.25241,-0.74905 c 0.13883,-0.41197 0.42224,-1.18925 0.6298,-1.72729 l 0.37738,-0.97826 -0.4177,-0.45188 c -0.22974,-0.24853 -0.59636,-0.66257 -0.81473,-0.92008 -0.21836,-0.2575 -0.41192,-0.46967 -0.43011,-0.47147 -0.0182,-0.002 -0.16624,0.22713 -0.32899,0.50874 -0.16274,0.2816 -0.35853,0.57516 -0.43509,0.65234 l -0.13918,0.14032 -1.02068,-0.1895 c -1.7944,-0.33316 -5.27068,-0.90602 -6.94301,-1.14414 -2.72904,-0.38859 -5.67678,-0.73654 -5.73621,-0.67712 -0.0434,0.0434 0.22309,1.19489 0.97542,4.21508 0.71849,2.88436 1.26675,4.9009 2.53574,9.3266 0.60003,2.09266 1.1852,4.15912 1.30036,4.59213 0.23226,0.87328 0.0722,0.57478 2.38025,4.44024 0.7171,1.20101 1.47935,2.501 1.69388,2.88888 0.21454,0.38787 0.41836,0.68774 0.45295,0.66636 0.0346,-0.0214 0.88339,-0.71113 1.88621,-1.53278 z m -45.952305,-2.95559 c 0.43673,-0.54962 1.27049,-1.60488 1.85279,-2.34503 1.33363,-1.69511 2.32272,-2.90361 4.01896,-4.91045 0.7375,-0.87255 1.41788,-1.68605 1.51196,-1.80778 0.14737,-0.1907 0.19166,-0.37054 0.31998,-1.29948 0.52054,-3.76805 0.9681,-6.84257 1.25881,-8.6475 0.18401,-1.14244 0.33456,-2.13252 0.33456,-2.2002 0,-0.11883 -0.16628,-0.12305 -4.85302,-0.12305 -2.66916,0 -5.34726,0.0195 -5.95132,0.0433 l -1.09831,0.0433 -0.0374,0.23791 c -0.0635,0.40441 -0.504,4.5904 -0.48501,4.60896 0.0198,0.0193 2.40488,-2.47815 3.6847,-3.85822 0.4472,-0.48222 0.86369,-0.87677 0.92554,-0.87677 0.14948,0 0.27125,0.12879 0.27125,0.28688 0,0.18295 -0.68975,0.93778 -4.30301,4.70905 -1.9342,2.01879 -3.39156,3.56827 -3.9953,4.24787 l -0.24661,0.2776 0.83778,1.37668 c 0.46079,0.75718 0.84848,1.3877 0.86154,1.40115 0.0445,0.0458 4.10864,-2.47655 5.45512,-3.38566 0.19969,-0.13483 0.40961,-0.24513 0.46651,-0.24513 0.14884,0 0.26226,0.13489 0.26226,0.31189 0,0.12427 -0.18366,0.27297 -0.97603,0.79024 -1.33656,0.87253 -2.20999,1.41702 -4.68017,2.91764 -1.16541,0.70797 -2.12933,1.29712 -2.14206,1.30923 -0.0333,0.0317 0.81287,2.13166 1.16524,2.89167 0.25172,0.54295 0.2851,0.66036 0.21254,0.74778 -0.0482,0.0581 -0.16131,0.095 -0.25715,0.0838 -0.14253,-0.0166 -0.22201,-0.12016 -0.47606,-0.62049 -0.16773,-0.33032 -0.32219,-0.64298 -0.34324,-0.69479 -0.0496,-0.12203 -0.10819,-0.0469 -1.3162,1.68705 -0.53451,0.76723 -0.95139,1.41442 -0.9264,1.43821 0.19282,0.1835 7.42539,2.64947 7.68822,2.62132 0.1252,-0.0134 0.35852,-0.26071 0.95948,-1.01702 z m 13.57444,-8.0827 c 1.44054,-2.17455 3.15928,-4.722 3.81942,-5.66099 0.66014,-0.93899 1.36989,-1.94943 1.57721,-2.24542 0.68847,-0.98289 0.78842,-1.05341 2.038235,-1.43777 1.33528,-0.41067 3.71967,-1.01491 5.62326,-1.42504 0.78172,-0.16841 1.42647,-0.31179 1.43278,-0.31861 0.006,-0.007 0.0905,-0.57816 0.18718,-1.26965 0.0966,-0.69149 0.20059,-1.36891 0.23101,-1.50539 0.0304,-0.13648 0.051,-0.24971 0.0458,-0.25162 -0.0535,-0.0195 -3.92016,-0.29911 -3.93901,-0.28481 -0.014,0.0106 -0.0401,0.57856 -0.058,1.26214 -0.0179,0.68359 -0.0561,1.28833 -0.0848,1.34389 -0.0459,0.0889 -0.25709,0.0717 -1.76169,-0.14326 -5.078785,-0.72572 -10.062195,-1.24171 -12.037335,-1.24636 l -0.733,-0.002 -0.18047,1.10837 c -0.5877,3.60933 -1.49647,9.91714 -1.4966,10.38793 -1.4e-4,0.56117 -0.11906,0.75714 -1.30256,2.14677 -0.62989,0.73959 -1.1444,1.3596 -1.14336,1.3778 0.007,0.12607 4.7621,2.10661 5.07814,2.11518 0.0466,0.001 1.26331,-1.77688 2.70384,-3.95143 z m 15.419225,2.83683 c 2.60811,-1.22834 5.15208,-2.3682 7.03657,-3.15285 0.67329,-0.28033 1.25054,-0.53417 1.28277,-0.56406 0.0334,-0.031 -0.20018,-0.97451 -0.54278,-2.19263 -0.911,-3.23905 -1.71804,-6.36653 -2.43007,-9.41711 -0.13592,-0.58231 -0.26981,-1.08404 -0.29754,-1.11497 -0.0631,-0.0703 -0.64033,-0.13374 -2.77671,-0.30508 -0.92804,-0.0744 -1.79554,-0.14683 -1.92777,-0.1609 -0.23204,-0.0247 -0.24163,-0.0172 -0.27539,0.21523 -0.0192,0.13245 -0.11389,0.7768 -0.21034,1.43189 -0.0965,0.6551 -0.17859,1.33162 -0.18251,1.50339 l -0.007,0.3123 -0.4685,0.10018 c -3.30179,0.70609 -4.70481,1.04254 -6.39083,1.53257 -0.56411,0.16395 -1.050055,0.32222 -1.079875,0.35169 -0.0298,0.0295 0.641895,1.43468 1.492695,3.12266 1.60552,3.18536 2.43303,4.94408 3.66182,7.78255 0.39753,0.91828 0.72758,1.67015 0.73344,1.67082 0.006,6.7e-4 1.07784,-0.50138 2.38216,-1.11568 z m 19.55267,-15.54171 c 0.16836,-0.28205 0.6999,-1.24236 1.1812,-2.13402 1.11947,-2.07394 1.79513,-3.29079 2.51899,-4.53667 0.67502,-1.16181 0.73674,-1.34026 2.10449,-6.08381 1.00767,-3.49478 1.75022,-5.90473 2.61483,-8.48646 0.54318,-1.62192 0.61011,-1.86934 0.50568,-1.86934 -0.0662,0 -0.90965,-0.29607 -1.87435,-0.65794 -0.9647,-0.36186 -3.0001,-1.10462 -4.52309,-1.65057 -1.523,-0.54594 -2.90308,-1.04139 -3.06686,-1.10098 l -0.29777,-0.10836 -1.55502,0.52923 c -0.85527,0.29109 -2.22501,0.7884 -3.04388,1.10514 -0.81887,0.31675 -1.74196,0.67363 -2.05131,0.79308 l -0.56245,0.21717 -0.22299,0.48625 c -0.50462,1.10038 -1.3991,3.19617 -1.38272,3.23976 0.019,0.0505 5.82929,-2.11325 7.89197,-2.93896 1.10976,-0.44424 1.27278,-0.49301 1.3896,-0.4157 0.15092,0.0999 0.19083,0.23064 0.10907,0.35743 -0.0877,0.13605 -1.61947,0.75217 -5.37862,2.16344 -1.90578,0.71548 -3.88938,1.46662 -4.40799,1.6692 -1.06905,0.4176 -1.01479,0.34472 -0.83832,1.12616 l 0.10462,0.46327 0.77215,0.18001 c 0.87171,0.20321 1.08787,0.30783 1.05743,0.51175 -0.0412,0.27559 -0.19696,0.29127 -0.99369,0.1 -1.041,-0.24993 -2.5015,-0.52491 -2.59576,-0.48874 -0.0433,0.0166 -0.11645,0.27893 -0.16265,0.58296 -0.11525,0.75844 -0.51994,2.79304 -0.63886,3.21191 -0.0668,0.23532 -0.1398,0.3566 -0.23232,0.38596 -0.29161,0.0925 -0.39703,-0.21574 -0.2663,-0.77871 l 0.0576,-0.24815 h -0.30735 c -0.27281,7e-5 -0.41515,0.0677 -1.26682,0.60221 -1.03548,0.64982 -2.24892,1.4684 -3.77702,2.54796 -0.53062,0.37486 -1.15844,0.78432 -1.39516,0.9099 l -0.43041,0.22833 -0.95392,-0.055 c -0.52465,-0.0303 -1.2368,-0.0632 -1.58255,-0.0731 l -0.62862,-0.0181 0.004,0.22833 c 0.002,0.12558 0.0395,0.55361 0.0827,0.95117 0.049,0.4509 0.0786,1.86362 0.0786,3.75521 v 3.03239 h 0.18654 c 0.2929,0 5.43491,0.38148 7.15845,0.53107 4.81414,0.41785 9.62537,1.0584 14.12756,1.88088 1.05543,0.19282 1.97884,0.35432 2.05201,0.35891 0.0991,0.006 0.21104,-0.12234 0.43915,-0.5045 z m -24.55334,-2.43901 c 0.0528,-2.13237 0.0486,-3.32164 -0.0182,-5.15414 -0.0478,-1.31019 -0.0869,-3.76679 -0.0869,-5.45912 v -3.07696 l -0.32003,-0.72789 c -0.17602,-0.40033 -0.50682,-1.11789 -0.73512,-1.59456 -0.40209,-0.83953 -0.42108,-0.86594 -0.60637,-0.84348 -5.281945,0.64027 -6.905365,0.86321 -10.829535,1.48719 -1.34608,0.21404 -2.18798,0.375 -2.11748,0.40483 0.0644,0.0272 1.03673,0.24285 2.16082,0.47914 1.12409,0.23628 2.0844,0.46331 2.13402,0.50449 0.19891,0.16507 0.0551,0.4557 -0.22552,0.4557 -0.0863,0 -1.35333,-0.25524 -2.81558,-0.56721 -6.66873,-1.42274 -7.76833,-1.63716 -11.19474,-2.18294 l -1.91897,-0.30566 -0.22213,0.25411 c -0.12217,0.13976 -0.51106,0.64121 -0.86419,1.11434 -0.35313,0.47312 -0.98682,1.32177 -1.4082,1.88588 -1.00492,1.34531 -1.89074,2.37584 -2.08388,2.42432 -0.18009,0.0452 -0.35136,-0.0733 -0.35136,-0.243 0,-0.0652 0.2571,-0.41139 0.57133,-0.76941 0.31423,-0.35802 1.26431,-1.57403 2.1113,-2.70225 1.79468,-2.3906 2.01645,-2.64783 2.23011,-2.58675 0.20681,0.0591 2.43725,0.43439 2.5877,0.43538 0.0945,6.6e-4 0.0465,-0.0867 -0.21107,-0.38407 l -0.33342,-0.38488 -1.44321,-0.18246 c -2.58252,-0.3265 -4.12801,-0.49795 -5.70447,-0.63281 l -1.54824,-0.13246 -0.80084,0.20038 c -1.61905,0.4051 -3.51593,0.94034 -3.58877,1.01263 -0.0412,0.0409 -0.12076,0.22325 -0.17679,0.40522 -0.056,0.18197 -0.40673,1.25394 -0.77933,2.38216 -0.3726,1.12822 -0.75669,2.34908 -0.85354,2.71302 -0.17002,0.63894 -0.21292,0.71744 -1.24669,2.28142 -0.58883,0.89084 -1.07061,1.68559 -1.07061,1.7661 0,0.0805 0.1209,0.67673 0.26867,1.32491 0.2571,1.12774 0.29822,1.32989 0.45597,2.24125 0.0382,0.22055 0.0695,1.30741 0.0696,2.41525 l 2e-4,2.01424 2.97832,0.75479 2.97832,0.7548 1.9016,-0.11132 c 5.31403,-0.31107 9.37011,-0.40252 15.36744,-0.3465 2.60218,0.0243 4.98434,0.0728 5.29369,0.10768 0.30936,0.0349 1.11334,0.0914 1.78663,0.12562 1.69842,0.0862 6.41804,0.62809 9.727175,1.11684 0.45493,0.0672 0.83535,0.11675 0.84539,0.11015 0.01,-0.007 0.0491,-1.25939 0.0869,-2.78397 z m -15.943355,-15.4603 c 0.0908,-0.0741 0.085,-0.31245 -0.0549,-2.29101 -0.15547,-2.19788 -0.15699,-2.20892 -0.32278,-2.33933 l -0.16658,-0.13104 0.14029,-0.23778 0.1403,-0.23779 -0.0765,-2.91509 c -0.0998,-3.80071 0.0524,-10.31755 0.25887,-11.08725 0.22568,-0.84128 1.08832,-3.65597 1.56749,-5.11455 0.85891,-2.61451 1.66213,-4.73883 2.8124,-7.43817 l 0.45681,-1.072 -0.20269,-1.37467 -0.2027,-1.37467 1.50064,-2.23515 c 0.82536,-1.22934 1.60733,-2.32882 1.73772,-2.44331 0.13038,-0.11448 0.4022,-0.28004 0.60403,-0.3679 0.76238,-0.3319 0.76799,-0.33503 0.66473,-0.37046 -0.35139,-0.12059 -5.26901,-1.70128 -5.59147,-1.79729 -1.04635,-0.31153 -1.38046,-0.48524 -2.16998,-1.12822 -0.42358,-0.34495 -0.81994,-0.62719 -0.8808,-0.62719 -0.31831,0 -4.36642,1.2533 -9.29015,2.87626 -2.12906,0.70177 -4.13247,1.34398 -4.45202,1.42713 -0.31955,0.0831 -0.57265,0.16898 -0.56245,0.19073 0.0191,0.0407 1.21039,1.78729 2.21533,3.24791 0.78357,1.13888 2.12373,2.97467 4.58907,6.28627 2.09387,2.81263 3.65393,4.98796 3.79186,5.28734 0.0669,0.14526 0.045,0.18264 -0.25181,0.43012 -1.64684,1.37296 -3.18153,2.75993 -5.79318,5.23556 -0.92805,0.87972 -1.7891,1.68866 -1.91344,1.79765 l -0.22607,0.19815 0.31882,0.58937 c 1.17065,2.16406 3.04114,5.32 5.62427,9.4894 1.47591,2.38225 3.72426,6.10635 4.28481,7.09724 0.16836,0.29762 0.29488,0.44598 0.39703,0.46561 0.33475,0.0643 0.95627,0.0432 1.05307,-0.0359 z m 5.11843,-0.77231 c 3.05443,-0.47479 8.707905,-1.21758 9.330155,-1.22585 0.26018,-0.003 0.26864,0.004 0.4969,0.43823 0.12771,0.24297 0.24895,0.4585 0.26942,0.47896 0.0205,0.0205 0.29254,-0.0518 0.60461,-0.16067 0.50777,-0.17709 0.6811,-0.20232 1.64954,-0.24016 0.83645,-0.0327 4.15277,0.0319 6.90521,0.13443 l 0.19851,0.007 0.1161,-0.6948 c 0.40533,-2.42563 0.93374,-6.26186 1.23503,-8.9662 0.33498,-3.00683 0.85179,-9.13442 0.77673,-9.20948 -0.0623,-0.0623 -3.01145,1.66904 -6.32972,3.71606 -0.6369,0.3929 -1.1629,0.71767 -1.16888,0.72172 -0.006,0.004 0.40903,0.84113 0.92226,1.86016 0.51323,1.01904 1.71309,3.46076 2.66634,5.42604 l 1.73321,3.57325 -0.14096,0.14612 c -0.12044,0.12484 -2.04387,1.21948 -3.03715,1.72847 l -0.31552,0.16169 -0.64396,-0.49078 c -0.35418,-0.26993 -1.64814,-1.25663 -2.87547,-2.19268 -1.22732,-0.93604 -2.2657,-1.7019 -2.30749,-1.7019 -0.16185,0 -3.315915,2.2997 -4.472655,3.26111 -0.32075,0.26659 -0.6756,0.53905 -0.78855,0.60548 -0.19687,0.11577 -0.22012,0.11599 -0.56245,0.005 -0.85818,-0.27757 -2.6405,-1.02187 -3.83109,-1.59986 -0.97181,-0.47179 -1.33935,-0.61983 -1.48886,-0.59973 -0.10918,0.0147 -0.98353,0.23253 -1.94299,0.4841 l -1.74448,0.4574 0.0409,0.6948 c 0.0823,1.39758 0.24844,3.74062 0.27024,3.81082 0.0153,0.0492 0.38741,0.0129 1.17,-0.11405 0.63117,-0.1024 2.10045,-0.3343 3.26507,-0.51534 z m -28.24879,-1.25597 c 1.15822,-0.35698 3.17147,-0.91906 4.65875,-1.30069 0.93842,-0.24079 0.97836,-0.24529 1.81971,-0.20492 1.13521,0.0545 3.15258,0.25714 5.38452,0.54093 0.9962,0.12667 1.86796,0.23031 1.93723,0.23031 0.0961,0 -0.0144,-0.17617 -0.46705,-0.74443 -0.5225,-0.65594 -0.76392,-0.88208 -2.03088,-1.90242 -0.79084,-0.6369 -1.49268,-1.23244 -1.55966,-1.32343 -0.067,-0.091 -0.30915,-0.59719 -0.53816,-1.12491 l -0.4164,-0.95948 -0.73134,-0.3826 c -0.66782,-0.34938 -0.73795,-0.40398 -0.80752,-0.62863 -0.11462,-0.37014 -0.40692,-1.73283 -0.40597,-1.89266 6.6e-4,-0.10707 0.7253,-1.18595 0.94244,-1.40308 0.0204,-0.0204 0.45641,0.058 0.96883,0.17434 l 0.93167,0.21151 0.5695,-0.18134 c 0.38172,-0.12154 0.64925,-0.16983 0.81139,-0.14646 0.13304,0.0192 0.89699,0.37724 1.69767,0.79569 0.80067,0.41844 1.46359,0.7533 1.47315,0.74415 0.01,-0.009 -0.19539,-0.37113 -0.45545,-0.80436 -0.69005,-1.14952 -1.87985,-3.23163 -2.51074,-4.39373 l -0.54936,-1.01189 0.49134,-0.43714 c 0.27024,-0.24043 1.08789,-1.00291 1.817,-1.6944 2.55321,-2.42147 3.98827,-3.72751 5.64789,-5.14011 l 0.28601,-0.24343 -0.21641,-0.31902 c -0.67891,-1.00084 -1.71683,-2.43033 -3.69092,-5.08335 -1.21862,-1.63774 -2.22794,-2.99253 -2.24293,-3.01065 -0.0467,-0.0565 -5.54951,1.38825 -5.60933,1.47269 -0.006,0.009 -0.41761,0.54404 -0.91415,1.18939 -3.85284,5.00754 -8.38542,11.62426 -11.54753,16.85724 -0.75661,1.25211 -0.91665,1.47057 -1.65933,2.26498 -0.45207,0.48356 -1.29625,1.4738 -1.87595,2.20052 l -1.05402,1.32132 0.1886,0.0552 c 0.10372,0.0303 2.24727,0.077 4.76344,0.10358 3.4171,0.0362 4.59923,0.0686 4.67118,0.12836 0.0836,0.0694 0.0629,0.27838 -0.15704,1.58589 -0.20785,1.23541 -0.44616,2.81158 -0.68541,4.53329 -0.019,0.13648 -0.0238,0.24815 -0.0108,0.24815 0.013,0 0.49723,-0.14597 1.07606,-0.32437 z m 1.02315,-4.73313 c -0.0686,-0.0827 -0.058,-0.23884 0.0577,-0.84704 0.34209,-1.79934 0.70975,-3.53912 1.16439,-5.51 1.02449,-4.4412 1.3461,-5.74378 1.43189,-5.79952 0.12673,-0.0823 0.32851,-0.0411 0.40624,0.083 0.0489,0.078 -0.0974,0.80445 -0.54611,2.71302 -0.88419,3.76064 -1.34705,5.85228 -1.65307,7.47011 -0.34238,1.80997 -0.38422,1.94618 -0.60579,1.97194 -0.0945,0.011 -0.20876,-0.0255 -0.25521,-0.0815 z m 50.650305,0.52477 c 5.43559,-7.27685 8.37025,-11.04883 11.80583,-15.17425 0.67642,-0.81225 1.23772,-1.49836 1.24732,-1.5247 0.0219,-0.0601 -2.28705,-2.1936 -4.71562,-4.35714 -1.01904,-0.90783 -2.01402,-1.79911 -2.21107,-1.98063 l -0.35828,-0.33004 0.64223,-0.98841 c 0.35323,-0.54363 1.24567,-1.92639 1.98321,-3.07281 1.62594,-2.52735 3.02501,-4.62653 4.42162,-6.63427 0.57617,-0.8283 1.0473,-1.52806 1.04695,-1.55503 -6.7e-4,-0.027 -0.2609,-0.14965 -0.579,-0.27265 -2.49976,-0.96658 -4.29987,-1.64073 -5.97131,-2.23628 -2.23801,-0.79743 -8.81683,-2.99921 -8.96148,-2.99921 -0.0531,0 -0.20994,0.10571 -0.34844,0.23492 -0.27181,0.25357 -1.1552,0.81608 -3.21418,2.04668 -0.92716,0.55414 -1.31644,0.82231 -1.33684,0.92092 -0.0158,0.0765 -0.0607,0.556 -0.0998,1.06552 -0.039,0.50952 -0.0869,1.07987 -0.10634,1.26746 l -0.0353,0.34106 0.3333,0.0715 c 0.18331,0.0393 0.45198,0.0905 0.59704,0.11365 0.2307,0.0369 0.27351,0.0722 0.34176,0.28225 0.1553,0.4778 3.31319,6.65715 3.5088,6.86598 0.12512,0.13358 0.45622,1.14769 0.93693,2.86968 l 0.21243,0.76096 -0.0139,1.95206 c -0.0492,6.8946 -0.9441,17.24459 -2.17239,25.12499 -0.25557,1.63968 -0.25012,1.59224 -0.17286,1.50562 0.0308,-0.0346 1.47959,-1.9686 3.21945,-4.29782 z m -1.18674,3.43984 c 0.42172,-0.23598 0.80207,-0.42905 0.84521,-0.42905 0.0431,0 0.50347,0.20756 1.02294,0.46126 l 0.94449,0.46126 0.0626,-0.1648 c 0.10061,-0.26461 0.75464,-1.78524 1.1159,-2.59447 l 0.33255,-0.74492 -0.17893,0.0391 c -0.0984,0.0215 -0.22064,0.0523 -0.27162,0.0684 -0.051,0.0161 -0.43808,0.0736 -0.86022,0.12777 -0.42215,0.0542 -0.99824,0.13123 -1.2802,0.17127 l -0.51267,0.0728 -1.14161,1.52859 c -0.62789,0.84072 -1.1537,1.55842 -1.16846,1.59488 -0.0148,0.0365 0.0519,0.0147 0.14817,-0.0484 0.0963,-0.0631 0.52007,-0.30775 0.9418,-0.54373 z m 29.95012,-1.16307 c 0.33597,-0.1714 1.46063,-0.66039 2.73408,-1.18875 2.40097,-0.99616 4.20792,-1.76709 4.25229,-1.8142 0.0269,-0.0285 -1.55912,-0.0353 -3.5244,-0.0151 l -3.57325,0.0368 -1.78662,0.36523 c -1.6493,0.33716 -4.25528,0.91817 -4.90766,1.09416 -0.27478,0.0741 -0.27632,0.0763 -0.479,0.68063 -0.11183,0.33345 -0.19622,0.61216 -0.18753,0.61936 0.009,0.007 1.29622,0.15376 2.86117,0.32567 1.56495,0.1719 2.96447,0.33329 3.11004,0.35864 0.27417,0.0478 0.84661,-0.12862 1.50088,-0.4624 z m -81.834825,0.12193 c 0.0609,-0.27031 0.56453,-3.49746 0.56453,-3.61729 0,-0.11058 -0.23094,-0.12016 -3.977,-0.16505 -2.18734,-0.0262 -3.98777,-0.0369 -4.00095,-0.0237 -0.0414,0.0413 7.21214,3.95494 7.33013,3.95494 0.0274,0 0.0648,-0.067 0.0833,-0.14889 z m 74.891035,-2.19806 c 1.13626,-0.29727 3.10326,-0.73802 5.17823,-1.16029 l 1.65428,-0.33666 3.82128,-0.0136 c 2.10171,-0.007 3.82133,-0.0249 3.82139,-0.0387 6e-5,-0.0138 -0.24665,-0.34137 -0.54823,-0.72788 -0.30158,-0.38652 -0.59549,-0.7772 -0.65312,-0.86818 -0.0576,-0.091 -0.3481,-0.44035 -0.64548,-0.77636 -0.49224,-0.55618 -0.77086,-1.01283 -3.10881,-5.09519 -3.41254,-5.95872 -4.66741,-8.04437 -7.01955,-11.66676 -1.34829,-2.07643 -3.83405,-5.63743 -4.23751,-6.0705 -0.11788,-0.12652 -0.93933,-0.45545 -3.17536,-1.2715 -1.37358,-0.50129 -6.03746,-2.05178 -6.16845,-2.05067 -0.0466,6.6e-4 -0.71005,0.97376 -1.47433,2.16304 -0.76428,1.18927 -1.69217,2.62538 -2.06196,3.19134 -0.36981,0.56597 -0.65764,1.05287 -0.63963,1.08201 0.018,0.0291 1.10967,1.01566 2.4259,2.19225 2.32811,2.08112 4.82235,4.37591 4.86028,4.47163 0.0103,0.0261 -0.39201,0.5357 -0.89406,1.13252 -3.15245,3.74749 -6.23614,7.6589 -10.52787,13.35377 -1.02598,1.3614 -1.85419,2.4865 -1.84048,2.50022 0.0623,0.0623 1.85261,-0.20694 2.34475,-0.35256 0.30182,-0.0893 1.12069,-0.3874 1.81971,-0.66244 1.66697,-0.65588 3.99087,-1.5074 5.2862,-1.93696 l 1.03753,-0.34406 0.5175,0.16435 c 0.90521,0.28748 7.07261,2.52091 8.59038,3.11087 0.32755,0.12732 0.63261,0.23335 0.67793,0.23561 0.0453,0.002 0.47707,-0.0991 0.95948,-0.22535 z m -1.05619,-2.66814 c -0.14126,-0.0914 -2.38104,-5.62192 -3.1165,-7.69533 -0.98718,-2.78309 -1.24026,-3.60898 -1.14215,-3.7272 0.12545,-0.15114 0.38317,-0.13159 0.4728,0.0359 0.0415,0.0776 0.35152,0.96345 0.68887,1.96859 0.73904,2.20193 1.30574,3.69551 2.40066,6.32716 1.08992,2.6196 1.15631,2.8086 1.04591,2.97771 -0.0968,0.14828 -0.22912,0.19113 -0.34959,0.11318 z m -48.879735,2.31861 c 0.0393,-0.0637 0.87031,-1.53021 1.84676,-3.25893 0.97644,-1.72873 2.11494,-3.71954 2.52999,-4.42403 0.41505,-0.70449 0.77006,-1.32109 0.78892,-1.37022 0.0196,-0.051 -0.30319,-0.48051 -0.75306,-1.00201 -1.04674,-1.21339 -2.28451,-2.70694 -3.0962,-3.73603 -0.36362,-0.461 -0.67194,-0.82737 -0.68516,-0.81415 -0.0132,0.0132 -0.15639,0.47973 -0.31816,1.03671 -0.24729,0.85143 -0.30361,1.15491 -0.35372,1.90598 -0.0842,1.2626 -0.19748,5.21785 -0.19732,6.89225 2e-4,1.89947 0.0778,4.88623 0.12691,4.88623 0.0218,0 0.0718,-0.0521 0.11104,-0.1158 z m 4.07874,-0.30636 c 0.0502,-0.0502 0.23654,-0.44477 0.41404,-0.87677 0.30563,-0.74384 0.93056,-2.11646 2.14721,-4.71623 0.2964,-0.63336 0.53016,-1.19594 0.51947,-1.25016 -0.034,-0.17219 -0.23511,-0.25655 -0.34511,-0.14473 -0.15114,0.15363 -2.2294,4.60892 -2.81642,6.03772 -0.28348,0.68997 -0.33197,0.86242 -0.26514,0.94294 0.10217,0.12311 0.22744,0.12572 0.34595,0.007 z m 10.953535,-2.09757 c 0.0462,-0.0881 0.0688,-0.24954 0.0501,-0.35872 -0.0943,-0.55097 -0.23952,-3.58207 -0.30445,-6.35244 -0.0754,-3.21735 -0.09,-3.35478 -0.34667,-3.2563 -0.15739,0.0604 -0.20715,1.93747 -0.11791,4.44739 0.0809,2.27506 0.24295,5.08374 0.31308,5.42604 0.0683,0.33367 0.25718,0.37742 0.40586,0.094 z m -23.650885,-1.61781 c -0.0213,-0.0556 -0.10228,-0.13408 -0.17989,-0.17441 -0.1298,-0.0674 -0.12825,-0.0593 0.0193,0.1011 0.18453,0.20062 0.21472,0.2144 0.16058,0.0733 z m 15.1469,-7.21083 c 0.52413,-0.83706 1.34295,-2.10828 1.81959,-2.82492 l 0.8666,-1.30298 -0.093,-0.3513 c -0.19297,-0.72861 -0.43014,-2.26961 -0.53106,-3.45054 l -0.0443,-0.51857 -1.10447,1.09757 c -1.4806,1.47136 -1.51368,1.47025 -1.81196,-0.0604 -0.0922,-0.47313 -0.38464,-2.17815 -0.64987,-3.78894 -0.43143,-2.6201 -0.49142,-2.91121 -0.56929,-2.76258 -0.0479,0.0914 -0.45412,1.08174 -0.90278,2.20082 -0.90041,2.24591 -1.58932,4.16734 -2.24201,6.25321 l -0.42968,1.37313 0.41256,0.54583 c 1.02862,1.36087 4.19731,5.15454 4.28195,5.12649 0.0246,-0.008 0.47363,-0.69972 0.99777,-1.53679 z m 13.964915,0.10884 c 1.76554,-1.09055 3.75298,-2.27041 5.19129,-3.08182 0.43008,-0.24262 0.67827,-0.42244 0.67828,-0.49144 2e-5,-0.0599 0.0442,-0.85325 0.0981,-1.7631 0.12038,-2.03073 0.23211,-5.15025 0.23247,-6.49031 2.7e-4,-0.95834 -0.0102,-1.03609 -0.26167,-1.95205 -0.14407,-0.52468 -0.31597,-1.13086 -0.38201,-1.34707 l -0.12007,-0.39312 -0.77196,1.8158 c -1.00489,2.3637 -1.71193,4.16892 -2.66554,6.80568 -0.92232,2.5503 -1.16657,3.14918 -1.28436,3.14918 -0.0498,0 -0.66109,-1.13632 -1.40256,-2.60704 -0.7229,-1.43387 -1.32947,-2.62215 -1.34795,-2.64063 -0.0185,-0.0185 0.0555,0.23001 0.16441,0.55218 l 0.19801,0.58577 -0.1722,0.26021 c -0.42656,0.64458 -1.00889,1.6421 -1.96846,3.37198 -0.29642,0.53437 -0.38445,0.64295 -0.52127,0.64295 -0.0979,0 -0.12069,0.0298 -0.0886,0.1158 0.0238,0.0637 0.5704,1.13671 1.21471,2.38448 0.84814,1.64254 1.19885,2.26179 1.27071,2.24371 0.0546,-0.0137 0.92699,-0.53626 1.93865,-1.16116 z m 1.36151,-6.82936 c 1.2319,-3.40923 1.86614,-5.02293 3.04128,-7.73789 l 0.73035,-1.68737 -0.54941,-1.05874 c -0.30217,-0.5823 -0.89284,-1.71383 -1.3126,-2.5145 -0.41975,-0.80067 -0.98101,-1.89389 -1.24723,-2.42937 l -0.48403,-0.97361 -0.31983,-0.0686 c -0.17591,-0.0377 -0.34815,-0.0686 -0.38275,-0.0686 -0.0803,0 -0.0826,0.41621 -0.003,0.49959 0.0931,0.0972 0.47449,1.60684 0.50899,2.01491 l 0.0308,0.36395 -0.80741,1.12491 c -0.44407,0.6187 -1.49271,2.12244 -2.33031,3.34164 -1.61093,2.34486 -1.99921,2.88637 -2.30395,3.21318 l -0.18872,0.20238 0.59766,0.19101 c 0.32871,0.10504 0.63874,0.2373 0.68895,0.2939 0.0502,0.0566 0.88689,1.68992 1.85928,3.62963 0.97239,1.93971 1.7787,3.51603 1.7918,3.50293 0.0131,-0.0131 0.31904,-0.84081 0.67986,-1.83937 z m -11.553435,-4.20134 1.04378,-0.98896 -0.3271,-0.80727 c -0.64376,-1.58881 -1.58001,-4.44564 -2.21747,-6.7663 l -0.29907,-1.08878 0.15198,-0.20156 c 0.40876,-0.54208 0.48752,-0.76643 0.5295,-1.50843 0.043,-0.75923 0.0347,-0.7779 -0.27609,-0.62129 -0.0983,0.0495 -0.30747,0.1098 -0.46486,0.13392 -0.1574,0.0241 -0.43442,0.14369 -0.6156,0.26571 -0.28381,0.19112 -0.53519,0.52713 -1.81536,2.42649 -1.3075,1.93991 -1.48185,2.22892 -1.45195,2.40688 0.0187,0.11124 0.15536,1.02112 0.30371,2.02196 0.35067,2.36571 1.36219,8.44734 1.42076,8.54211 0.0271,0.0439 0.63329,-0.50857 1.50967,-1.37607 0.80537,-0.79719 1.93402,-1.89448 2.5081,-2.43841 z m 7.249245,0.15845 -0.41865,-0.81655 -1.02565,-0.34268 c -0.56411,-0.18848 -1.09266,-0.32992 -1.17454,-0.31432 -0.48852,0.0931 -0.48902,0.0934 -0.44131,0.24563 0.20169,0.64385 0.44804,1.17234 0.54646,1.17234 0.17075,0 2.73896,0.78288 2.81383,0.85775 0.16735,0.16735 0.0875,-0.0462 -0.30014,-0.80217 z m -6.286115,0.1807 c 0.30314,-0.12995 0.59032,-0.23628 0.63819,-0.23628 0.1211,0 -0.0423,-0.55526 -0.17089,-0.5806 -0.0506,-0.01 -0.34516,0.23977 -0.65451,0.555 -0.30935,0.31522 -0.51779,0.55626 -0.4632,0.53565 0.0546,-0.0206 0.34728,-0.14381 0.65041,-0.27377 z m 2.973305,-0.33215 c 0.01,-0.009 -0.0872,-0.30503 -0.21506,-0.65819 -0.24848,-0.68644 -0.28133,-0.90991 -0.14971,-1.01832 0.0455,-0.0375 0.46981,-0.13084 0.94294,-0.20749 0.47312,-0.0766 0.94955,-0.18486 1.05874,-0.24047 0.22593,-0.11509 0.69614,-0.75115 2.54106,-3.4373 0.69989,-1.01904 1.45074,-2.10681 1.66854,-2.41728 l 0.39601,-0.56448 0.16192,-2.54557 c 0.0891,-1.40006 0.19166,-2.87311 0.22802,-3.27345 0.0363,-0.40033 0.0662,-0.79295 0.0663,-0.87247 2e-4,-0.12872 -0.11053,-0.0787 -1.00889,0.45526 -1.63505,0.97192 -4.84832,2.83785 -5.73124,3.32811 -0.80883,0.44912 -0.82111,0.45335 -1.09182,0.37646 -0.15059,-0.0428 -0.943355,-0.28412 -1.761705,-0.53633 -0.90914,-0.28021 -1.50382,-0.43281 -1.52883,-0.39234 -0.0225,0.0364 -0.08,0.9873 -0.12768,2.11303 l -0.0868,2.04678 0.38365,1.27348 c 0.39343,1.30595 1.25935,3.80591 1.6174,4.66952 0.11048,0.26647 0.33202,0.6721 0.49231,0.90139 0.16029,0.2293 0.339685,0.56215 0.398645,0.73967 l 0.1072,0.32277 0.81078,-0.0234 c 0.44593,-0.0128 0.81859,-0.0306 0.82815,-0.0394 z m 29.56984,-6.70323 c -0.0183,-0.0637 -0.18595,-0.68156 -0.37249,-1.37305 -0.434,-1.60875 -1.18441,-4.20146 -1.24992,-4.31852 -0.0498,-0.089 -0.56176,0.61733 -2.34585,3.23632 l -0.70525,1.03528 2.29932,0.76099 c 1.26464,0.41854 2.32367,0.76408 2.35342,0.76788 0.0298,0.004 0.0391,-0.0452 0.0208,-0.1089 z m -22.54119,-2.9258 c 0.0512,-0.0956 0.0444,-0.18767 -0.0254,-0.3474 l -0.095,-0.21733 -0.005,0.3474 c -0.006,0.37633 0.0183,0.41806 0.12573,0.21733 z m 8.39799,-38.1416 c 0.0415,-0.05 0.0572,-0.13832 0.035,-0.19632 -0.0223,-0.058 -0.60516,-0.39106 -1.29535,-0.74014 -0.69019,-0.34908 -1.30787,-0.68506 -1.37262,-0.74662 -0.0648,-0.0616 -0.17441,-0.14478 -0.24367,-0.18493 -0.1208,-0.07 -0.10639,-0.15092 0.3536,-1.98514 0.43884,-1.74991 0.81808,-3.37918 1.10889,-4.76397 0.10769,-0.512805 0.10638,-0.629485 -0.0304,-2.713025 -0.12551,-1.91186 -0.3389,-4.232458 -0.53183,-5.783508 -0.0376,-0.30234 -0.15052,-0.70316 -0.28894,-1.02566 -0.12497,-0.29115 -0.58565,-1.37873 -1.02373,-2.41683 -1.44504,-3.42426 -2.8117,-6.36762 -4.40823,-9.49399 -1.05142,-2.0589 -2.31437,-4.43347 -2.44077,-4.58907 -0.20225,-0.24897 -3.69647,-2.31928 -6.05695,-3.58871 l -0.42018,-0.22596 -0.3641,0.39702 c -0.480525,0.52399 -1.899195,2.21482 -2.266515,2.70134 l -0.2907,0.38502 -0.18348,1.50895 c -0.2231,1.8347 -0.3555,3.22132 -0.48688,5.09878 -0.16837,2.40616 -0.17475,2.32468 0.46843,5.9885 0.46154,2.62908 1.06206,5.58166 1.58137,7.77512 0.34375,1.451908 0.865215,2.789738 3.030555,7.775113 l 0.68978,1.58811 -0.27203,0.086 c -0.28475,0.09 -0.80221,0.12295 -1.28433,0.0818 -0.20203,-0.0172 -0.31637,0.008 -0.39467,0.0859 -0.0996,0.0996 -0.10033,0.12013 -0.008,0.21288 0.0807,0.0807 0.31407,0.10878 1.08947,0.1313 1.04582,0.0304 5.01535,0.2643 5.68497,0.33501 0.68897,0.0728 2.75166,0.98825 6.48477,2.87813 1.63774,0.8291 2.9964,1.50933 3.01924,1.51161 0.0228,0.002 0.0755,-0.0367 0.11694,-0.0867 z m -6.93065,-3.80542 c -0.0489,-0.031 -0.22045,-0.0415 -0.38125,-0.0234 -0.32252,0.0363 -0.79972,-0.14142 -1.49056,-0.55528 -0.35457,-0.21241 -0.40355,-0.22321 -1.01227,-0.22321 -0.59026,0 -0.65105,-0.0123 -0.7869,-0.15885 -0.081,-0.0874 -0.21673,-0.16926 -0.3017,-0.18197 -0.11336,-0.017 -0.17744,-0.0936 -0.24075,-0.28781 -1.26956,-3.895005 -1.81207,-5.634325 -2.41813,-7.752655 -0.25156,-0.8793 -0.57408,-1.966208 -0.71671,-2.415348 -0.24419,-0.769 -0.26358,-0.8919 -0.33256,-2.10687 -0.13164,-2.31878 -0.16085,-5.42378 -0.0759,-8.07278 l 0.0816,-2.54759 -0.7,-1.77049 c -0.97947,-2.47733 -1.11928,-3.0931 -0.70228,-3.0931 0.16357,0 0.20765,0.077 0.34094,0.59554 0.11882,0.46228 0.67735,1.95615 1.4473,3.87102 0.2634,0.6551 0.78511,1.98683 1.15935,2.9594 0.67635,1.75769 0.68638,1.77798 1.66939,3.37474 1.96211,3.18718 3.88176,6.68924 3.98456,7.26913 0.11157,0.629378 0.3273,2.694608 0.43491,4.163708 0.0934,1.27478 0.22115,7.015655 0.15608,7.013135 -0.0144,-5.3e-4 -0.0662,-0.0264 -0.11513,-0.0574 z m -12.925395,35.89095 c -0.0737,-0.16178 -0.0671,-0.19459 0.0598,-0.29734 0.0784,-0.0635 0.25603,-0.13345 0.39464,-0.15541 0.26994,-0.0428 2.887895,-0.31559 4.606915,-0.48011 1.0217,-0.0978 1.0561,-0.10613 1.46193,-0.35452 0.70734,-0.43294 0.81917,-0.4793 0.96633,-0.40054 0.23172,0.12401 0.16659,0.37295 -0.14948,0.57139 -0.15467,0.0971 -0.44064,0.28194 -0.63548,0.41074 -0.33441,0.22108 -0.40298,0.23881 -1.22417,0.31651 -2.28763,0.21649 -4.576565,0.45341 -5.085815,0.52643 -0.29462,0.0422 -0.31635,0.0347 -0.39464,-0.13715 z m 1.13282,-2.33806 c -0.0566,-0.0247 -0.51147,-0.36912 -1.01072,-0.7653 -0.64253,-0.50986 -0.89836,-0.75152 -0.87563,-0.82714 0.0177,-0.0587 0.13676,-0.68974 0.26467,-1.40222 0.28561,-1.59077 0.74821,-3.88421 0.80055,-3.96891 0.0614,-0.0993 0.33714,-0.0725 0.43211,0.0419 0.0725,0.0873 0.0309,0.39303 -0.2544,1.86933 -0.50585,2.61771 -0.62514,3.33218 -0.56503,3.38419 0.0298,0.0258 0.36684,0.29443 0.74898,0.59698 0.92094,0.72913 0.97522,0.80244 0.75624,1.02142 -0.11281,0.11282 -0.14133,0.11759 -0.29677,0.0497 z m 31.638795,-4.81482 c 0.003,-0.0771 0.0189,-0.0928 0.04,-0.04 0.0191,0.0478 0.0168,0.10484 -0.005,0.12683 -0.022,0.022 -0.0376,-0.0171 -0.0348,-0.0869 z m -40.007395,-0.70914 c -0.61778,-0.2182 -1.56724,-0.53617 -2.10989,-0.7066 l -0.98664,-0.30989 -0.73381,-1.32236 c -0.4036,-0.7273 -0.94103,-1.7247 -1.19429,-2.21645 l -0.46049,-0.89409 -0.54863,-0.34714 c -0.57529,-0.36401 -0.61811,-0.43554 -0.50755,-0.84794 l 0.0393,-0.14645 0.23988,0.163 c 0.32874,0.22338 0.36604,0.20583 0.2105,-0.0991 -0.0735,-0.14413 -0.13369,-0.28115 -0.13369,-0.30449 0,-0.0233 0.21588,-0.0209 0.47974,0.005 l 0.47974,0.0478 -0.3474,-0.36802 c -0.19107,-0.20241 -0.3474,-0.42831 -0.3474,-0.502 0,-0.12849 0.17387,-0.27097 0.33065,-0.27097 0.0411,0 0.38072,0.29777 0.75479,0.66171 0.93804,0.91264 1.04849,0.87114 0.35797,-0.13449 -0.44879,-0.65359 -0.53387,-0.81655 -0.47502,-0.90985 0.0407,-0.0645 0.15407,-0.11366 0.26219,-0.11366 0.16983,0 0.2624,0.10195 0.85301,0.93937 0.36439,0.51666 0.67741,0.95261 0.69561,0.96879 0.0182,0.0162 0.53929,0.093 1.15799,0.17081 0.6187,0.0778 2.19537,0.27553 3.5037,0.43948 1.30833,0.16396 2.38625,0.30557 2.39538,0.31469 0.009,0.009 0.0635,0.6707 0.12071,1.47018 0.0573,0.79947 0.13679,1.78113 0.17673,2.18146 0.0399,0.40034 0.0765,0.8605 0.0812,1.02257 l 0.009,0.29469 -0.95948,0.35255 c -0.52772,0.19391 -1.18281,0.45266 -1.45577,0.57502 -0.27296,0.12235 -0.55659,0.23599 -0.63029,0.25253 -0.0737,0.0165 -0.63947,-0.14846 -1.25726,-0.36665 z m 17.669395,-1.53885 c -0.21837,-0.0913 -1.01751,-0.4186 -1.77587,-0.72737 -0.75836,-0.30877 -1.41987,-0.59815 -1.47001,-0.64306 -0.0502,-0.0449 -0.13342,-0.11682 -0.18506,-0.15981 -0.0516,-0.043 -0.23047,-0.63853 -0.3974,-1.32343 -0.24884,-1.02092 -0.30685,-1.37577 -0.32198,-1.96968 l -0.0185,-0.72441 0.43531,-0.21169 c 0.39446,-0.19182 1.74862,-0.53325 5.5201,-1.39181 1.34007,-0.30506 1.69172,-0.39945 1.76771,-0.47448 0.0468,-0.0462 0.38321,-0.50732 0.74759,-1.02471 0.59082,-0.83889 0.68313,-0.94069 0.85302,-0.94069 0.10811,0 0.2215,0.0491 0.26219,0.11365 0.0588,0.0933 -0.0262,0.25626 -0.47502,0.90986 -0.37676,0.54868 -0.51366,0.79619 -0.44037,0.79619 0.0585,0 0.41632,-0.29777 0.79516,-0.66171 0.37884,-0.36394 0.72337,-0.66171 0.76561,-0.66171 0.10281,0 0.25211,0.20351 0.25473,0.34721 0.001,0.0636 -0.1013,0.23006 -0.22768,0.36995 l -0.22979,0.25434 0.39041,-0.005 c 0.41756,-0.006 0.52496,0.0389 0.41833,0.17365 -0.0367,0.0464 -0.0802,0.15951 -0.0967,0.25142 -0.0256,0.143 -0.006,0.16686 0.13819,0.16543 0.11079,-0.001 0.17639,0.0396 0.19235,0.11935 0.0467,0.23354 -0.051,0.40983 -0.31793,0.57377 -0.21804,0.13388 -0.28826,0.22852 -0.36828,0.49628 -0.11304,0.3783 -0.44824,1.75235 -0.7599,3.11504 l -0.21303,0.93139 -1.56288,0.77787 c -0.85959,0.42783 -1.93712,0.9839 -2.39452,1.23572 -0.4574,0.25182 -0.8445,0.45714 -0.86022,0.45628 -0.0157,-8.7e-4 -0.20726,-0.0763 -0.42562,-0.16754 z"
       id="path179" /></g></svg>
